<svg xmlns="http://www.w3.org/2000/svg" version="1.1" xmlns:xlink="http://www.w3.org/1999/xlink" xmlns:svgjs="http://svgjs.dev/svgjs" width="1500" height="234" viewBox="0 0 1500 234"><g transform="matrix(1,0,0,1,-0.9090909090909918,-0.22043620664015862)"><svg viewBox="0 0 396 62" data-background-color="#ffffff" preserveAspectRatio="xMidYMid meet" height="234" width="1500" xmlns="http://www.w3.org/2000/svg" xmlns:xlink="http://www.w3.org/1999/xlink"><g id="tight-bounds" transform="matrix(1,0,0,1,0.2400000000000091,0.0584061744089297)"><svg viewBox="0 0 395.52 61.883187651182126" height="61.883187651182126" width="395.52"><g><svg viewBox="0 0 522.6402094956724 81.77245691311144" height="61.883187651182126" width="395.52"><g><rect width="7.33763637174122" height="81.77245691311144" x="100.57410094659816" y="0" fill="#e2f1e6" opacity="1" stroke-width="0" stroke="transparent" fill-opacity="1" class="rect-qz-0" data-fill-palette-color="primary" rx="1%" id="qz-0" data-palette-color="#e2f1e6"></rect></g><g transform="matrix(1,0,0,1,127.12020949567243,0.20341407192315586)"><svg viewBox="0 0 395.52 81.36562876926513" height="81.36562876926513" width="395.52"><g id="textblocktransform"><svg viewBox="0 0 395.52 81.36562876926513" height="81.36562876926513" width="395.52" id="textblock"><g><svg viewBox="0 0 395.52 81.36562876926513" height="81.36562876926513" width="395.52"><g transform="matrix(1,0,0,1,0,0)"><svg width="395.52" viewBox="1.95 -33.89 218.59 44.97" height="81.36562876926513" data-palette-color="#e2f1e6"><path d="M7.96-32.03L7.96-32.03Q10.16-32.03 15.58-32.23 21-32.42 23.73-32.42L23.73-32.42Q23.93-31.01 24.49-28.69 25.05-26.37 25.15-25.78L25.15-25.78Q24.9-25.54 24.27-25.54 23.63-25.54 23.58-25.88L23.58-25.88Q22.85-28.56 21.53-29.32 20.21-30.08 17.92-30.08L17.92-30.08 14.65-30.08Q10.45-30.08 10.35-29.44L10.35-29.44Q10.11-28.27 10.11-25.34L10.11-25.34 10.11-17.38Q10.11-17.09 12.16-17.09L12.16-17.09 14.75-17.09Q18.02-17.09 18.75-17.55 19.48-18.02 20.02-20.21L20.02-20.21Q20.07-20.51 20.12-20.65L20.12-20.65Q20.17-21 20.85-21L20.85-21Q21.44-21 21.68-20.75L21.68-20.75 21.68-11.28Q21.48-11.08 20.9-11.08L20.9-11.08Q20.26-11.08 20.12-11.47L20.12-11.47Q19.78-12.79 19.53-13.45 19.29-14.11 19.17-14.23 19.04-14.36 18.75-14.55L18.75-14.55Q18.12-14.94 13.57-14.94L13.57-14.94Q10.11-14.94 10.11-14.5L10.11-14.5 10.11-6.79Q10.11-3.96 10.55-2.25L10.55-2.25Q10.64-1.9 11.91-1.59 13.18-1.27 13.67-1.27L13.67-1.27Q13.87-1.27 13.87-0.54L13.87-0.54Q13.87-0.15 13.77 0.15L13.77 0.15Q8.89-0.1 8.11-0.1L8.11-0.1Q7.86-0.1 2.25 0.15L2.25 0.15Q2.05-0.05 2.05-0.59L2.05-0.59Q2.05-1.27 2.25-1.27L2.25-1.27Q2.88-1.27 4.13-1.56 5.37-1.86 5.52-2.25L5.52-2.25Q5.86-3.56 5.86-6.64L5.86-6.64 5.86-25.44Q5.86-28.32 5.52-29.64L5.52-29.64Q5.37-30.03 4.08-30.37 2.78-30.71 2.15-30.71L2.15-30.71Q1.95-30.71 1.95-31.3L1.95-31.3Q1.95-31.93 2.15-32.13L2.15-32.13Q4.69-32.03 7.96-32.03ZM31.76-27.22Q31.05-27.93 31.05-28.96 31.05-29.98 31.76-30.69 32.47-31.4 33.49-31.4 34.52-31.4 35.23-30.69 35.94-29.98 35.94-28.96 35.94-27.93 35.23-27.22 34.52-26.51 33.49-26.51 32.47-26.51 31.76-27.22ZM35.74-16.65L35.74-6.59Q35.74-3.76 36.13-2.25L36.13-2.25Q36.23-1.9 37.4-1.59 38.57-1.27 39.06-1.27L39.06-1.27Q39.21-1.27 39.26-0.68 39.3-0.1 39.21 0.15L39.21 0.15Q34.32-0.1 33.98-0.1 33.64-0.1 28.66 0.15L28.66 0.15Q28.46-0.05 28.46-0.66 28.46-1.27 28.66-1.27L28.66-1.27Q29.25-1.27 30.39-1.59 31.54-1.9 31.64-2.25L31.64-2.25Q31.98-3.66 31.98-5.66L31.98-5.66 31.98-14.89Q31.98-16.8 31.3-17.53L31.3-17.53Q30.81-18.12 30.1-18.33 29.39-18.55 28.93-18.55 28.46-18.55 28.46-18.65L28.46-18.65Q28.46-19.82 28.76-19.87L28.76-19.87Q33.93-20.65 35.5-21.14L35.5-21.14 35.59-21.19Q35.69-21.19 35.74-21.19L35.74-21.19Q35.94-21.19 35.98-20.78 36.03-20.36 35.98-20.17L35.98-20.17Q35.74-18.21 35.74-16.65L35.74-16.65ZM55.76-21.39L55.76-21.39Q59.17-21.39 60.54-18.95 61.91-16.5 61.91-11.04L61.91-11.04 61.91-6.59Q61.91-3.76 62.3-2.25L62.3-2.25Q62.4-1.9 63.57-1.59 64.74-1.27 65.23-1.27L65.23-1.27Q65.38-1.27 65.42-0.68 65.47-0.1 65.38 0.15L65.38 0.15Q60.49-0.1 60.15-0.1L60.15-0.1Q60.05-0.1 55.02 0.15L55.02 0.15Q54.83-0.05 54.83-0.66 54.83-1.27 55.02-1.27L55.02-1.27Q55.61-1.27 56.66-1.59 57.71-1.9 57.81-2.25L57.81-2.25Q58.15-3.66 58.15-5.66L58.15-5.66 58.15-10.55Q58.15-15.09 56.98-16.75 55.81-18.41 53.17-18.41L53.17-18.41Q51.61-18.41 50.17-17.26 48.73-16.11 48.73-15.19L48.73-15.19 48.73-6.59Q48.73-3.76 49.12-2.25L49.12-2.25Q49.21-1.9 50.39-1.59 51.56-1.27 52.05-1.27L52.05-1.27Q52.19-1.27 52.24-0.68 52.29-0.1 52.19 0.15L52.19 0.15Q47.31-0.1 46.97-0.1L46.97-0.1Q46.67-0.1 41.65 0.15L41.65 0.15Q41.45-0.05 41.45-0.66 41.45-1.27 41.65-1.27L41.65-1.27Q42.23-1.27 43.38-1.59 44.53-1.9 44.62-2.25L44.62-2.25Q44.97-3.66 44.97-5.66L44.97-5.66 44.97-14.89Q44.97-16.8 44.28-17.53L44.28-17.53Q43.79-18.12 43.09-18.33 42.38-18.55 41.91-18.55 41.45-18.55 41.45-18.65L41.45-18.65Q41.45-19.82 41.74-19.87L41.74-19.87Q46.92-20.65 48.48-21.14L48.48-21.14Q48.53-21.14 48.63-21.17 48.73-21.19 48.73-21.19L48.73-21.19Q48.92-21.19 48.97-20.78 49.02-20.36 48.97-20.17L48.97-20.17Q48.77-18.8 48.77-18.21L48.77-18.21Q48.77-18.02 48.87-18.02L48.87-18.02Q48.92-18.02 49.02-18.12L49.02-18.12Q50.14-19.29 52.07-20.34 54-21.39 55.76-21.39ZM78.65-19.43L78.65-19.43Q75.82-19.43 74.21-16.89 72.6-14.36 72.6-10.99L72.6-10.99Q72.6-7.42 74.5-4.81 76.41-2.2 79.78-2.2L79.78-2.2Q81.44-2.2 82.37-2.95 83.29-3.71 83.29-4.98L83.29-4.98 83.29-16.6Q83.29-17.63 82.19-18.53 81.1-19.43 78.65-19.43ZM79.29-21.48L79.29-21.48Q81.39-21.48 82.95-20.65L82.95-20.65Q83.29-20.65 83.29-21.53L83.29-21.53 83.29-26.81Q83.29-28.47 83-29.93L83-29.93Q82.76-30.71 80.51-30.71L80.51-30.71 80.07-30.71Q79.78-30.71 79.78-31.25L79.78-31.25Q79.78-32.03 80.07-32.03L80.07-32.03Q81.54-32.18 82.78-32.42 84.03-32.67 84.73-32.91 85.44-33.15 85.93-33.37 86.42-33.59 86.66-33.74L86.66-33.74 86.86-33.89 86.96-33.89Q87.15-33.89 87.35-33.62 87.54-33.35 87.59-33.11L87.59-33.11Q87.05-31.54 87.05-28.86L87.05-28.86 87.05-6.88Q87.05-4.54 87.35-3.17L87.35-3.17Q87.44-2.83 87.88-2.64 88.32-2.44 88.79-2.39 89.25-2.34 89.69-2.34L89.69-2.34 90.13-2.29Q90.28-2.25 90.28-1.71L90.28-1.71Q90.28-0.98 89.98-0.98L89.98-0.98Q89.25-0.93 88.35-0.78 87.44-0.63 86.64-0.46 85.83-0.29 85.15-0.12 84.47 0.05 84.03 0.2L84.03 0.2 83.59 0.29Q83.29 0.29 83.29-0.54L83.29-0.54 83.29-1.12Q83.29-1.42 83.1-1.32L83.1-1.32Q80.36 0.2 77.92 0.2L77.92 0.2Q73.87 0.2 71.14-2.69 68.4-5.57 68.4-9.57L68.4-9.57Q68.4-14.31 71.75-17.9 75.09-21.48 79.29-21.48ZM98.96-32.08L98.96-32.08Q100.77-32.08 103.46-32.32L103.46-32.32Q103.8-31.2 113.12-7.86L113.12-7.86Q113.17-7.76 113.32-7.76L113.32-7.76Q113.52-7.76 113.56-7.96L113.56-7.96Q118.35-19.19 121.18-26.46L121.18-26.46Q121.18-26.46 123.13-32.32L123.13-32.32Q126.26-32.13 127.19-32.13L127.19-32.13Q130.21-32.13 132.66-32.32L132.66-32.32Q132.8-31.88 132.8-31.59L132.8-31.59Q132.8-30.91 132.56-30.91L132.56-30.91 132.46-30.91Q131.92-30.91 131.04-30.59 130.17-30.27 129.73-29.93L129.73-29.93Q129.14-29.49 129.14-26.66L129.14-26.66Q129.14-25.88 129.58-6.84L129.58-6.84Q129.63-4.05 130.31-2.34L130.31-2.34Q130.51-1.9 131.78-1.59 133.05-1.27 133.58-1.27L133.58-1.27Q133.78-1.27 133.78-0.59L133.78-0.59Q133.78-0.15 133.68 0.15L133.68 0.15Q128.8-0.1 127.87-0.1L127.87-0.1Q127.63-0.1 122.01 0.15L122.01 0.15Q121.82-0.05 121.82-0.63L121.82-0.63Q121.82-1.27 122.01-1.27L122.01-1.27Q122.5-1.27 123.5-1.51 124.5-1.76 124.94-2L124.94-2Q125.53-2.34 125.53-4.1L125.53-4.1 125.53-6.69 124.94-23.88Q124.89-24.66 124.67-25.71 124.45-26.76 124.21-26.76L124.21-26.76Q124.11-26.76 123.96-26.42L123.96-26.42 113.76-2Q112.83 0.1 111.95 0.1L111.95 0.1Q111.81 0.1 111.51 0L111.51 0 100.33-28.42Q100.23-23.73 100.04-17.68 99.84-11.62 99.7-7.69 99.55-3.76 99.55-3.66L99.55-3.66Q99.55-2.78 99.84-2.39 100.14-2 101.63-1.64 103.12-1.27 103.6-1.27L103.6-1.27Q103.8-1.27 103.8-0.54L103.8-0.54Q103.8-0.15 103.7 0.15L103.7 0.15Q98.82-0.1 98.04-0.1L98.04-0.1Q97.94-0.1 92.32 0.15L92.32 0.15Q92.08-0.1 92.08-0.59L92.08-0.59Q92.08-1.27 92.32-1.27L92.32-1.27Q93.01-1.27 94.35-1.59 95.69-1.9 96.13-2.34L96.13-2.34Q96.91-3.22 97.01-6.59L97.01-6.59Q97.11-11.67 97.23-16.6 97.35-21.53 97.45-24.34 97.55-27.15 97.55-27.93L97.55-27.93Q97.55-29.15 97.35-29.88L97.35-29.88Q97.21-30.27 95.69-30.59 94.18-30.91 93.5-30.91L93.5-30.91Q93.3-30.91 93.3-31.59L93.3-31.59Q93.3-32.13 93.5-32.32L93.5-32.32Q94.33-32.28 95.33-32.23 96.33-32.18 97.16-32.13 97.99-32.08 98.96-32.08ZM140.81-20.95L140.81-20.95Q141.64-20.95 142.35-21 143.05-21.04 143.96-21.09 144.86-21.14 145.54-21.19L145.54-21.19Q145.64-20.9 145.64-20.46L145.64-20.46Q145.64-19.78 145.45-19.78L145.45-19.78Q145.06-19.78 144.15-19.43 143.25-19.09 143.15-18.75L143.15-18.75 143.15-18.65Q143.15-17.77 148.38-5.91L148.38-5.91 152.09-16.6Q152.43-17.63 152.43-18.12L152.43-18.12Q152.43-18.85 151.67-19.31 150.92-19.78 149.65-19.78L149.65-19.78Q149.45-19.78 149.45-20.41L149.45-20.41Q149.45-21 149.65-21.19L149.65-21.19Q150.28-21.14 151.55-21.04 152.82-20.95 153.99-20.95L153.99-20.95Q155.07-20.95 156.34-21.04 157.6-21.14 158.24-21.19L158.24-21.19Q158.34-20.9 158.34-20.46L158.34-20.46Q158.34-19.78 158.14-19.78L158.14-19.78Q157.51-19.78 156.41-19.34 155.31-18.9 154.97-17.92L154.97-17.92 146.23 5.66Q145.1 8.69 143.69 9.89 142.27 11.08 141.1 11.08L141.1 11.08Q140.08 11.08 139.59 10.45 139.1 9.81 139.1 9.18L139.1 9.18Q139.1 8.11 139.78 7.62L139.78 7.62Q143.84 7.62 145.15 3.42L145.15 3.42Q145.4 2.69 145.74 1.66 146.08 0.63 146.28 0L146.28 0 139.29-17.09Q138.76-18.26 138.32-18.75L138.32-18.75Q137.88-19.19 136.97-19.48 136.07-19.78 135.53-19.78L135.53-19.78Q135.34-19.78 135.34-20.41L135.34-20.41Q135.34-21 135.53-21.19L135.53-21.19Q140.56-20.95 140.81-20.95ZM166.1-32.03L166.1-32.03Q167.07-32.03 168-32.08 168.93-32.13 170-32.2 171.08-32.28 171.76-32.32L171.76-32.32Q171.86-32.03 171.86-31.59L171.86-31.59Q171.86-30.91 171.66-30.91L171.66-30.91Q171.18-30.91 169.91-30.57 168.64-30.22 168.54-29.88L168.54-29.88Q168.1-28.17 168.1-25.34L168.1-25.34 168.1-4.15Q168.1 2 164.66 6.54 161.22 11.08 155.89 11.08L155.89 11.08Q155.36 11.08 154.72 10.89 154.09 10.69 153.7 10.5L153.7 10.5 153.35 10.3Q152.77 9.62 152.77 8.5L152.77 8.5Q152.77 7.42 153.67 6.74 154.57 6.05 155.8 6.05L155.8 6.05Q156.67 6.05 157.77 7.1 158.87 8.15 159.51 8.15L159.51 8.15Q160.19 8.15 160.9 7.47 161.61 6.79 162.29 5.47 162.97 4.15 163.41 1.73 163.85-0.68 163.85-3.76L163.85-3.76 163.85-25.54Q163.85-28.56 163.51-29.88L163.51-29.88Q163.36-30.27 162.12-30.59 160.87-30.91 160.24-30.91L160.24-30.91Q160.04-30.91 160.04-31.54L160.04-31.54Q160.04-32.13 160.24-32.32L160.24-32.32Q160.87-32.28 162.83-32.15 164.78-32.03 166.1-32.03ZM184.99-19.43L184.99-19.43Q182.4-19.43 180.77-17.07 179.13-14.7 179.13-11.28L179.13-11.28Q179.13-7.28 181.21-4.42 183.28-1.56 186.07-1.56L186.07-1.56Q188.65-1.56 190.31-4 191.97-6.45 191.97-9.86L191.97-9.86Q191.97-13.82 189.88-16.63 187.78-19.43 184.99-19.43ZM185.53-21.34L185.53-21.34Q189.92-21.34 193.05-18.16 196.17-14.99 196.17-10.55L196.17-10.55Q196.17-6.05 193.12-2.86 190.07 0.34 185.63 0.34 181.18 0.34 178.06-2.86 174.93-6.05 174.93-10.55L174.93-10.55Q174.93-15.09 177.96-18.21 180.99-21.34 185.53-21.34ZM210.53-21.39L210.53-21.39Q215.21-21.39 217.88-18.19 220.54-14.99 220.54-11.38L220.54-11.38Q220.54-6.74 217.09-3.22 213.65 0.29 209.5 0.29L209.5 0.29Q207.69 0.29 206.06-0.02 204.42-0.34 204.18-0.34L204.18-0.34Q203.74-0.34 203.08-0.07 202.42 0.2 202.32 0.2L202.32 0.2Q202.13 0.2 201.71 0.05 201.3-0.1 201.3-0.29L201.3-0.29Q201.3-0.34 201.44-1.1 201.59-1.86 201.74-3.32 201.88-4.79 201.88-6.59L201.88-6.59 201.88-26.81Q201.88-28.47 201.59-29.93L201.59-29.93Q201.35-30.71 199.1-30.71L199.1-30.71 198.66-30.71Q198.37-30.71 198.37-31.25L198.37-31.25Q198.37-32.03 198.66-32.03L198.66-32.03Q200.13-32.18 201.37-32.42 202.62-32.67 203.32-32.91 204.03-33.15 204.52-33.37 205.01-33.59 205.25-33.74L205.25-33.74 205.45-33.89 205.55-33.89Q205.74-33.89 205.94-33.62 206.13-33.35 206.18-33.11L206.18-33.11Q205.64-31.54 205.64-28.86L205.64-28.86 205.64-20.31Q205.64-19.78 205.79-19.78L205.79-19.78Q205.84-19.78 205.94-19.82L205.94-19.82Q206.62-20.31 208.04-20.85 209.45-21.39 210.53-21.39ZM208.96-18.99L208.96-18.99Q207.6-18.99 206.62-18.24 205.64-17.48 205.64-16.06L205.64-16.06 205.64-4.69Q205.64-3.17 207.08-2.47 208.52-1.76 210.43-1.76L210.43-1.76Q213.21-1.76 214.77-4.39 216.34-7.03 216.34-10.35L216.34-10.35Q216.34-14.21 214.31-16.6 212.28-18.99 208.96-18.99Z" opacity="1" transform="matrix(1,0,0,1,0,0)" fill="#e2f1e6" class="wordmark-text-0" data-fill-palette-color="primary" id="text-0"></path></svg></g></svg></g></svg></g></svg></g><g transform="matrix(1,0,0,1,0,0.20341407192315586)"><svg viewBox="0 0 81.36562876926513 81.36562876926513" height="81.36562876926513" width="81.36562876926513"><g><svg xmlns="http://www.w3.org/2000/svg" xmlns:xlink="http://www.w3.org/1999/xlink" version="1.1" x="0" y="0" viewBox="11.665999999999997 11.666 115.668 115.668" enable-background="new 0 0 139 139" xml:space="preserve" height="81.36562876926513" width="81.36562876926513" class="icon-icon-0" data-fill-palette-color="accent" id="icon-0"><path d="M69.5 11.666c-31.941 0-57.834 25.893-57.834 57.834 0 31.941 25.893 57.834 57.834 57.834 31.941 0 57.834-25.893 57.834-57.834C127.334 37.559 101.441 11.666 69.5 11.666zM98.588 96.975c-0.915 0.914-2.113 1.37-3.313 1.37-1.198 0-2.397-0.456-3.313-1.37L78.796 83.807c-3.793 2.645-8.401 4.2-13.377 4.2-12.935 0-23.42-10.485-23.42-23.42 0-12.935 10.485-23.42 23.42-23.42 12.935 0 23.421 10.485 23.421 23.42 0 4.571-1.314 8.833-3.578 12.437L98.587 90.35C100.417 92.18 100.417 95.145 98.588 96.975z" fill="#f2e2de" data-fill-palette-color="accent"></path><circle cx="65.419" cy="64.587" r="16" fill="#f2e2de" data-fill-palette-color="accent"></circle></svg></g></svg></g></svg></g><defs></defs></svg><rect width="395.52" height="61.883187651182126" fill="none" stroke="none" visibility="hidden"></rect></g></svg></g></svg>